<svg xmlns="http://www.w3.org/2000/svg" xmlns:xlink="http://www.w3.org/1999/xlink" width="500" zoomAndPan="magnify" viewBox="0 0 375 374.999991" height="500" preserveAspectRatio="xMidYMid meet" version="1.0"><defs><g/><clipPath id="id1"><path d="M 137.292969 112.40625 L 237.792969 112.40625 L 237.792969 195.597656 L 137.292969 195.597656 Z M 137.292969 112.40625 " clip-rule="nonzero"/></clipPath></defs><path fill="#004aad" d="M 201.355469 182.410156 C 200.984375 181.785156 200.207031 181.539062 199.539062 181.828125 C 197.402344 182.761719 195.316406 182.699219 193.449219 181.632812 C 191.160156 180.324219 189.515625 177.609375 189.089844 174.597656 L 190.578125 173.105469 C 191.007812 172.671875 191.136719 172.027344 190.902344 171.460938 C 190.667969 170.894531 190.125 170.53125 189.511719 170.53125 L 185.476562 170.53125 C 184.863281 170.53125 184.320312 170.894531 184.085938 171.460938 C 183.851562 172.027344 183.980469 172.671875 184.410156 173.105469 L 185.984375 174.679688 C 185.539062 177.660156 183.902344 180.339844 181.632812 181.632812 C 179.765625 182.699219 177.683594 182.761719 175.542969 181.828125 C 174.878906 181.539062 174.101562 181.785156 173.730469 182.410156 C 173.285156 183.164062 173.605469 184.128906 174.40625 184.476562 C 175.773438 185.070312 177.148438 185.367188 178.5 185.367188 C 180.078125 185.367188 181.621094 184.957031 183.058594 184.136719 C 184.960938 183.050781 186.507812 181.324219 187.542969 179.246094 C 188.578125 181.324219 190.125 183.050781 192.027344 184.136719 C 193.460938 184.957031 195.003906 185.367188 196.585938 185.367188 C 197.933594 185.367188 199.3125 185.070312 200.675781 184.476562 C 201.476562 184.128906 201.796875 183.164062 201.355469 182.410156 " fill-opacity="1" fill-rule="nonzero"/><path fill="#004aad" d="M 206.367188 158.714844 C 204.511719 158.714844 203.007812 160.222656 203.007812 162.082031 C 203.007812 163.9375 204.511719 165.445312 206.367188 165.445312 C 208.21875 165.445312 209.722656 163.9375 209.722656 162.082031 C 209.722656 160.222656 208.21875 158.714844 206.367188 158.714844 " fill-opacity="1" fill-rule="nonzero"/><path fill="#004aad" d="M 168.71875 158.714844 C 166.863281 158.714844 165.359375 160.222656 165.359375 162.082031 C 165.359375 163.9375 166.863281 165.445312 168.71875 165.445312 C 170.570312 165.445312 172.074219 163.9375 172.074219 162.082031 C 172.074219 160.222656 170.570312 158.714844 168.71875 158.714844 " fill-opacity="1" fill-rule="nonzero"/><g clip-path="url(#id1)"><path fill="#004aad" d="M 222.203125 116.941406 L 222.203125 151.019531 C 221.417969 149.128906 220.480469 147.304688 219.386719 145.554688 C 218.71875 144.488281 218 143.457031 217.234375 142.464844 L 217.234375 131.972656 C 217.234375 131.234375 216.34375 130.867188 215.824219 131.386719 L 211.0625 136.160156 C 209.558594 134.949219 207.964844 133.855469 206.289062 132.886719 Z M 152.878906 116.941406 L 168.792969 132.886719 C 167.085938 133.871094 165.46875 134.992188 163.945312 136.226562 L 159.117188 131.386719 C 158.597656 130.867188 157.707031 131.234375 157.707031 131.972656 L 157.707031 142.648438 C 156.996094 143.582031 156.320312 144.550781 155.695312 145.554688 C 154.605469 147.304688 153.664062 149.128906 152.878906 151.019531 Z M 236.992188 186.117188 L 225.082031 180.222656 L 225.082031 177.742188 L 233.59375 177.742188 C 234.386719 177.742188 235.03125 177.09375 235.03125 176.300781 C 235.03125 175.503906 234.386719 174.859375 233.59375 174.859375 L 225.082031 174.859375 L 225.082031 172.378906 L 236.992188 166.480469 C 237.703125 166.128906 237.996094 165.265625 237.644531 164.550781 C 237.292969 163.835938 236.429688 163.542969 235.714844 163.898438 L 225.082031 169.164062 L 225.082031 114.121094 C 225.082031 113.425781 224.664062 112.804688 224.023438 112.539062 C 223.382812 112.269531 222.648438 112.417969 222.160156 112.910156 L 203.613281 131.492188 C 198.738281 129.167969 193.289062 127.863281 187.542969 127.863281 C 181.792969 127.863281 176.34375 129.167969 171.46875 131.492188 L 152.925781 112.910156 C 152.433594 112.417969 151.703125 112.269531 151.058594 112.539062 C 150.417969 112.804688 150.003906 113.425781 150.003906 114.121094 L 150.003906 169.164062 L 139.367188 163.898438 C 138.65625 163.542969 137.792969 163.835938 137.441406 164.550781 C 137.089844 165.265625 137.378906 166.128906 138.09375 166.480469 L 150.003906 172.378906 L 150.003906 174.859375 L 141.492188 174.859375 C 140.699219 174.859375 140.054688 175.503906 140.054688 176.300781 C 140.054688 177.09375 140.699219 177.742188 141.492188 177.742188 L 150.003906 177.742188 L 150.003906 180.222656 L 138.09375 186.117188 C 137.378906 186.472656 137.089844 187.335938 137.441406 188.046875 C 137.792969 188.761719 138.65625 189.054688 139.367188 188.703125 L 150.003906 183.4375 L 150.003906 195.597656 L 152.878906 195.597656 L 152.878906 165.480469 C 152.878906 165.113281 152.886719 164.75 152.898438 164.386719 C 152.902344 164.273438 152.90625 164.160156 152.910156 164.046875 C 152.921875 163.789062 152.9375 163.53125 152.953125 163.273438 C 152.960938 163.152344 152.964844 163.03125 152.976562 162.910156 C 153 162.582031 153.027344 162.25 153.058594 161.921875 C 153.078125 161.753906 153.097656 161.589844 153.117188 161.421875 C 153.136719 161.257812 153.15625 161.089844 153.175781 160.925781 C 153.207031 160.710938 153.234375 160.496094 153.269531 160.28125 C 153.28125 160.203125 153.292969 160.125 153.304688 160.046875 C 155.914062 143.464844 170.273438 130.746094 187.542969 130.746094 C 204.808594 130.746094 219.167969 143.464844 221.777344 160.046875 C 221.789062 160.125 221.804688 160.203125 221.816406 160.28125 C 221.847656 160.496094 221.878906 160.710938 221.90625 160.925781 C 221.925781 161.089844 221.945312 161.257812 221.964844 161.421875 C 221.984375 161.589844 222.007812 161.753906 222.023438 161.921875 C 222.054688 162.25 222.085938 162.582031 222.109375 162.910156 C 222.117188 163.03125 222.125 163.152344 222.132812 163.273438 C 222.148438 163.53125 222.160156 163.789062 222.171875 164.046875 C 222.175781 164.160156 222.179688 164.273438 222.183594 164.386719 C 222.195312 164.75 222.203125 165.113281 222.203125 165.480469 L 222.203125 195.597656 L 225.082031 195.597656 L 225.082031 183.4375 L 235.714844 188.703125 C 236.429688 189.054688 237.292969 188.761719 237.644531 188.046875 C 237.996094 187.335938 237.703125 186.472656 236.992188 186.117188 " fill-opacity="1" fill-rule="nonzero"/></g><g fill="#004aad" fill-opacity="1"><g transform="translate(93.563151, 247.719418)"><g><path d="M 7.625 -8.40625 C 7.625 -8.238281 7.578125 -8.078125 7.484375 -7.921875 L 4.734375 -4 L 4.734375 -0.796875 C 4.734375 -0.566406 4.660156 -0.375 4.515625 -0.21875 C 4.367188 -0.0703125 4.191406 0 3.984375 0 C 3.765625 0 3.578125 -0.0703125 3.421875 -0.21875 C 3.265625 -0.375 3.1875 -0.566406 3.1875 -0.796875 L 3.1875 -4.1875 L 0.453125 -7.8125 C 0.296875 -8.019531 0.21875 -8.222656 0.21875 -8.421875 C 0.21875 -8.648438 0.304688 -8.84375 0.484375 -9 C 0.671875 -9.15625 0.863281 -9.234375 1.0625 -9.234375 C 1.3125 -9.234375 1.523438 -9.109375 1.703125 -8.859375 L 4.015625 -5.671875 L 6.1875 -8.828125 C 6.363281 -9.097656 6.582031 -9.234375 6.84375 -9.234375 C 7.050781 -9.234375 7.234375 -9.148438 7.390625 -8.984375 C 7.546875 -8.828125 7.625 -8.632812 7.625 -8.40625 Z M 7.625 -8.40625 "/></g></g></g><g fill="#004aad" fill-opacity="1"><g transform="translate(104.025119, 247.719418)"><g><path d="M 9.4375 -4.59375 C 9.4375 -3.726562 9.242188 -2.929688 8.859375 -2.203125 C 8.472656 -1.484375 7.941406 -0.914062 7.265625 -0.5 C 6.585938 -0.0820312 5.820312 0.125 4.96875 0.125 C 4.125 0.125 3.363281 -0.0820312 2.6875 -0.5 C 2.007812 -0.914062 1.476562 -1.484375 1.09375 -2.203125 C 0.71875 -2.929688 0.53125 -3.726562 0.53125 -4.59375 C 0.53125 -5.457031 0.71875 -6.25 1.09375 -6.96875 C 1.476562 -7.695312 2.007812 -8.269531 2.6875 -8.6875 C 3.363281 -9.101562 4.125 -9.3125 4.96875 -9.3125 C 5.820312 -9.3125 6.585938 -9.101562 7.265625 -8.6875 C 7.941406 -8.269531 8.472656 -7.695312 8.859375 -6.96875 C 9.242188 -6.25 9.4375 -5.457031 9.4375 -4.59375 Z M 7.734375 -4.59375 C 7.734375 -5.175781 7.613281 -5.707031 7.375 -6.1875 C 7.132812 -6.664062 6.804688 -7.046875 6.390625 -7.328125 C 5.972656 -7.609375 5.5 -7.75 4.96875 -7.75 C 4.4375 -7.75 3.960938 -7.609375 3.546875 -7.328125 C 3.128906 -7.054688 2.804688 -6.675781 2.578125 -6.1875 C 2.347656 -5.707031 2.234375 -5.175781 2.234375 -4.59375 C 2.234375 -4.007812 2.347656 -3.472656 2.578125 -2.984375 C 2.804688 -2.503906 3.128906 -2.125 3.546875 -1.84375 C 3.960938 -1.570312 4.4375 -1.4375 4.96875 -1.4375 C 5.5 -1.4375 5.972656 -1.578125 6.390625 -1.859375 C 6.804688 -2.140625 7.132812 -2.519531 7.375 -3 C 7.613281 -3.476562 7.734375 -4.007812 7.734375 -4.59375 Z M 7.734375 -4.59375 "/></g></g></g><g fill="#004aad" fill-opacity="1"><g transform="translate(116.626445, 247.719418)"><g><path d="M 7.5 -9.203125 C 7.726562 -9.203125 7.910156 -9.125 8.046875 -8.96875 C 8.191406 -8.820312 8.265625 -8.632812 8.265625 -8.40625 L 8.265625 -3.65625 C 8.265625 -2.925781 8.109375 -2.28125 7.796875 -1.71875 C 7.492188 -1.15625 7.066406 -0.71875 6.515625 -0.40625 C 5.972656 -0.09375 5.347656 0.0625 4.640625 0.0625 C 3.921875 0.0625 3.285156 -0.09375 2.734375 -0.40625 C 2.179688 -0.71875 1.75 -1.15625 1.4375 -1.71875 C 1.132812 -2.28125 0.984375 -2.925781 0.984375 -3.65625 L 0.984375 -8.40625 C 0.984375 -8.625 1.0625 -8.8125 1.21875 -8.96875 C 1.375 -9.125 1.578125 -9.203125 1.828125 -9.203125 C 2.035156 -9.203125 2.21875 -9.125 2.375 -8.96875 C 2.53125 -8.8125 2.609375 -8.625 2.609375 -8.40625 L 2.609375 -3.65625 C 2.609375 -3.226562 2.695312 -2.847656 2.875 -2.515625 C 3.0625 -2.191406 3.3125 -1.941406 3.625 -1.765625 C 3.9375 -1.597656 4.273438 -1.515625 4.640625 -1.515625 C 5.015625 -1.515625 5.363281 -1.597656 5.6875 -1.765625 C 6.019531 -1.941406 6.28125 -2.191406 6.46875 -2.515625 C 6.664062 -2.847656 6.765625 -3.226562 6.765625 -3.65625 L 6.765625 -8.40625 C 6.765625 -8.632812 6.832031 -8.820312 6.96875 -8.96875 C 7.101562 -9.125 7.28125 -9.203125 7.5 -9.203125 Z M 7.5 -9.203125 "/></g></g></g><g fill="#004aad" fill-opacity="1"><g transform="translate(128.519027, 247.719418)"><g><path d="M 8.1875 -1.28125 C 8.300781 -1.21875 8.390625 -1.128906 8.453125 -1.015625 C 8.523438 -0.898438 8.5625 -0.78125 8.5625 -0.65625 C 8.5625 -0.5 8.507812 -0.351562 8.40625 -0.21875 C 8.269531 -0.0625 8.066406 0.015625 7.796875 0.015625 C 7.585938 0.015625 7.394531 -0.03125 7.21875 -0.125 C 6.59375 -0.488281 6.28125 -1.222656 6.28125 -2.328125 C 6.28125 -2.640625 6.175781 -2.882812 5.96875 -3.0625 C 5.757812 -3.25 5.460938 -3.34375 5.078125 -3.34375 L 2.625 -3.34375 L 2.625 -0.796875 C 2.625 -0.566406 2.5625 -0.375 2.4375 -0.21875 C 2.3125 -0.0703125 2.140625 0 1.921875 0 C 1.671875 0 1.453125 -0.0703125 1.265625 -0.21875 C 1.078125 -0.375 0.984375 -0.566406 0.984375 -0.796875 L 0.984375 -8.390625 C 0.984375 -8.617188 1.054688 -8.804688 1.203125 -8.953125 C 1.359375 -9.109375 1.550781 -9.1875 1.78125 -9.1875 L 5.5625 -9.1875 C 6.019531 -9.1875 6.445312 -9.0625 6.84375 -8.8125 C 7.25 -8.570312 7.570312 -8.238281 7.8125 -7.8125 C 8.050781 -7.382812 8.171875 -6.898438 8.171875 -6.359375 C 8.171875 -5.921875 8.050781 -5.492188 7.8125 -5.078125 C 7.582031 -4.671875 7.28125 -4.34375 6.90625 -4.09375 C 7.457031 -3.707031 7.757812 -3.191406 7.8125 -2.546875 C 7.832031 -2.410156 7.84375 -2.273438 7.84375 -2.140625 C 7.882812 -1.867188 7.921875 -1.671875 7.953125 -1.546875 C 7.984375 -1.429688 8.0625 -1.34375 8.1875 -1.28125 Z M 5.5 -4.703125 C 5.65625 -4.703125 5.804688 -4.773438 5.953125 -4.921875 C 6.109375 -5.066406 6.234375 -5.265625 6.328125 -5.515625 C 6.421875 -5.765625 6.46875 -6.035156 6.46875 -6.328125 C 6.46875 -6.566406 6.421875 -6.789062 6.328125 -7 C 6.234375 -7.207031 6.109375 -7.367188 5.953125 -7.484375 C 5.804688 -7.609375 5.65625 -7.671875 5.5 -7.671875 L 2.625 -7.671875 L 2.625 -4.703125 Z M 5.5 -4.703125 "/></g></g></g><g fill="#004aad" fill-opacity="1"><g transform="translate(140.175357, 247.719418)"><g/></g></g><g fill="#004aad" fill-opacity="1"><g transform="translate(146.48984, 247.719418)"><g><path d="M 4.78125 -9.1875 C 5.226562 -9.1875 5.648438 -9.050781 6.046875 -8.78125 C 6.453125 -8.519531 6.773438 -8.160156 7.015625 -7.703125 C 7.265625 -7.253906 7.390625 -6.765625 7.390625 -6.234375 C 7.390625 -5.710938 7.265625 -5.222656 7.015625 -4.765625 C 6.773438 -4.304688 6.453125 -3.941406 6.046875 -3.671875 C 5.648438 -3.410156 5.226562 -3.28125 4.78125 -3.28125 L 2.5 -3.28125 L 2.5 -0.796875 C 2.5 -0.566406 2.425781 -0.375 2.28125 -0.21875 C 2.144531 -0.0703125 1.960938 0 1.734375 0 C 1.515625 0 1.332031 -0.0703125 1.1875 -0.21875 C 1.050781 -0.375 0.984375 -0.566406 0.984375 -0.796875 L 0.984375 -8.390625 C 0.984375 -8.617188 1.054688 -8.804688 1.203125 -8.953125 C 1.359375 -9.109375 1.550781 -9.1875 1.78125 -9.1875 Z M 4.78125 -4.78125 C 4.945312 -4.78125 5.109375 -4.847656 5.265625 -4.984375 C 5.429688 -5.128906 5.5625 -5.3125 5.65625 -5.53125 C 5.757812 -5.75 5.8125 -5.984375 5.8125 -6.234375 C 5.8125 -6.484375 5.757812 -6.71875 5.65625 -6.9375 C 5.5625 -7.15625 5.429688 -7.332031 5.265625 -7.46875 C 5.109375 -7.601562 4.945312 -7.671875 4.78125 -7.671875 L 2.5 -7.671875 L 2.5 -4.78125 Z M 4.78125 -4.78125 "/></g></g></g><g fill="#004aad" fill-opacity="1"><g transform="translate(157.043684, 247.719418)"><g><path d="M 6.1875 -1.515625 C 6.40625 -1.515625 6.59375 -1.4375 6.75 -1.28125 C 6.90625 -1.125 6.984375 -0.945312 6.984375 -0.75 C 6.984375 -0.53125 6.90625 -0.347656 6.75 -0.203125 C 6.59375 -0.0664062 6.40625 0 6.1875 0 L 1.78125 0 C 1.550781 0 1.359375 -0.0703125 1.203125 -0.21875 C 1.054688 -0.375 0.984375 -0.566406 0.984375 -0.796875 L 0.984375 -8.390625 C 0.984375 -8.617188 1.054688 -8.804688 1.203125 -8.953125 C 1.359375 -9.109375 1.550781 -9.1875 1.78125 -9.1875 L 6.1875 -9.1875 C 6.40625 -9.1875 6.59375 -9.113281 6.75 -8.96875 C 6.90625 -8.820312 6.984375 -8.632812 6.984375 -8.40625 C 6.984375 -8.1875 6.90625 -8.007812 6.75 -7.875 C 6.601562 -7.738281 6.414062 -7.671875 6.1875 -7.671875 L 2.625 -7.671875 L 2.625 -5.453125 L 5.59375 -5.453125 C 5.820312 -5.453125 6.007812 -5.378906 6.15625 -5.234375 C 6.3125 -5.085938 6.390625 -4.898438 6.390625 -4.671875 C 6.390625 -4.453125 6.316406 -4.273438 6.171875 -4.140625 C 6.023438 -4.003906 5.832031 -3.9375 5.59375 -3.9375 L 2.625 -3.9375 L 2.625 -1.515625 Z M 6.1875 -1.515625 "/></g></g></g><g fill="#004aad" fill-opacity="1"><g transform="translate(167.190656, 247.719418)"><g><path d="M 7.015625 -9.1875 C 7.253906 -9.1875 7.445312 -9.113281 7.59375 -8.96875 C 7.75 -8.832031 7.828125 -8.648438 7.828125 -8.421875 C 7.828125 -8.191406 7.75 -8.007812 7.59375 -7.875 C 7.445312 -7.738281 7.253906 -7.671875 7.015625 -7.671875 L 4.96875 -7.671875 L 4.96875 -0.796875 C 4.96875 -0.566406 4.882812 -0.375 4.71875 -0.21875 C 4.550781 -0.0703125 4.34375 0 4.09375 0 C 3.851562 0 3.648438 -0.0703125 3.484375 -0.21875 C 3.328125 -0.375 3.25 -0.566406 3.25 -0.796875 L 3.25 -7.671875 L 1.1875 -7.671875 C 0.957031 -7.671875 0.765625 -7.738281 0.609375 -7.875 C 0.460938 -8.019531 0.390625 -8.207031 0.390625 -8.4375 C 0.390625 -8.65625 0.46875 -8.832031 0.625 -8.96875 C 0.78125 -9.113281 0.96875 -9.1875 1.1875 -9.1875 Z M 7.015625 -9.1875 "/></g></g></g><g fill="#004aad" fill-opacity="1"><g transform="translate(178.046372, 247.719418)"><g><path d="M 3.9375 0.125 C 3.3125 0.125 2.75 0.046875 2.25 -0.109375 C 1.757812 -0.265625 1.300781 -0.53125 0.875 -0.90625 C 0.644531 -1.113281 0.53125 -1.34375 0.53125 -1.59375 C 0.53125 -1.800781 0.601562 -1.976562 0.75 -2.125 C 0.894531 -2.28125 1.070312 -2.359375 1.28125 -2.359375 C 1.445312 -2.359375 1.597656 -2.304688 1.734375 -2.203125 C 2.078125 -1.910156 2.414062 -1.695312 2.75 -1.5625 C 3.082031 -1.4375 3.476562 -1.375 3.9375 -1.375 C 4.425781 -1.375 4.847656 -1.484375 5.203125 -1.703125 C 5.554688 -1.921875 5.734375 -2.191406 5.734375 -2.515625 C 5.734375 -2.910156 5.554688 -3.21875 5.203125 -3.4375 C 4.859375 -3.664062 4.304688 -3.835938 3.546875 -3.953125 C 1.628906 -4.234375 0.671875 -5.125 0.671875 -6.625 C 0.671875 -7.175781 0.8125 -7.65625 1.09375 -8.0625 C 1.382812 -8.46875 1.78125 -8.773438 2.28125 -8.984375 C 2.78125 -9.203125 3.335938 -9.3125 3.953125 -9.3125 C 4.503906 -9.3125 5.019531 -9.226562 5.5 -9.0625 C 5.988281 -8.894531 6.394531 -8.675781 6.71875 -8.40625 C 6.96875 -8.207031 7.09375 -7.976562 7.09375 -7.71875 C 7.09375 -7.519531 7.019531 -7.34375 6.875 -7.1875 C 6.726562 -7.03125 6.554688 -6.953125 6.359375 -6.953125 C 6.222656 -6.953125 6.101562 -6.992188 6 -7.078125 C 5.769531 -7.253906 5.453125 -7.421875 5.046875 -7.578125 C 4.640625 -7.734375 4.273438 -7.8125 3.953125 -7.8125 C 3.398438 -7.8125 2.972656 -7.707031 2.671875 -7.5 C 2.367188 -7.289062 2.21875 -7.019531 2.21875 -6.6875 C 2.21875 -6.3125 2.375 -6.023438 2.6875 -5.828125 C 3 -5.640625 3.484375 -5.488281 4.140625 -5.375 C 4.898438 -5.238281 5.503906 -5.066406 5.953125 -4.859375 C 6.398438 -4.648438 6.738281 -4.367188 6.96875 -4.015625 C 7.195312 -3.660156 7.3125 -3.191406 7.3125 -2.609375 C 7.3125 -2.054688 7.15625 -1.570312 6.84375 -1.15625 C 6.53125 -0.738281 6.113281 -0.421875 5.59375 -0.203125 C 5.082031 0.015625 4.53125 0.125 3.9375 0.125 Z M 3.9375 0.125 "/></g></g></g><g fill="#004aad" fill-opacity="1"><g transform="translate(188.521458, 247.719418)"><g/></g></g><g fill="#004aad" fill-opacity="1"><g transform="translate(194.835941, 247.719418)"><g><path d="M 7.640625 -9.1875 C 7.878906 -9.1875 8.070312 -9.109375 8.21875 -8.953125 C 8.375 -8.804688 8.453125 -8.617188 8.453125 -8.390625 L 8.453125 -0.796875 C 8.453125 -0.566406 8.375 -0.375 8.21875 -0.21875 C 8.0625 -0.0703125 7.859375 0 7.609375 0 C 7.390625 0 7.203125 -0.0703125 7.046875 -0.21875 C 6.890625 -0.375 6.8125 -0.566406 6.8125 -0.796875 L 6.8125 -3.859375 L 2.625 -3.859375 L 2.625 -0.796875 C 2.625 -0.566406 2.539062 -0.375 2.375 -0.21875 C 2.207031 -0.0703125 2.015625 0 1.796875 0 C 1.554688 0 1.359375 -0.0703125 1.203125 -0.21875 C 1.054688 -0.375 0.984375 -0.566406 0.984375 -0.796875 L 0.984375 -8.390625 C 0.984375 -8.617188 1.0625 -8.804688 1.21875 -8.953125 C 1.375 -9.109375 1.578125 -9.1875 1.828125 -9.1875 C 2.046875 -9.1875 2.234375 -9.109375 2.390625 -8.953125 C 2.546875 -8.804688 2.625 -8.617188 2.625 -8.390625 L 2.625 -5.375 L 6.8125 -5.375 L 6.8125 -8.390625 C 6.8125 -8.617188 6.894531 -8.804688 7.0625 -8.953125 C 7.226562 -9.109375 7.421875 -9.1875 7.640625 -9.1875 Z M 7.640625 -9.1875 "/></g></g></g><g fill="#004aad" fill-opacity="1"><g transform="translate(206.912272, 247.719418)"><g><path d="M 6.1875 -1.515625 C 6.40625 -1.515625 6.59375 -1.4375 6.75 -1.28125 C 6.90625 -1.125 6.984375 -0.945312 6.984375 -0.75 C 6.984375 -0.53125 6.90625 -0.347656 6.75 -0.203125 C 6.59375 -0.0664062 6.40625 0 6.1875 0 L 1.78125 0 C 1.550781 0 1.359375 -0.0703125 1.203125 -0.21875 C 1.054688 -0.375 0.984375 -0.566406 0.984375 -0.796875 L 0.984375 -8.390625 C 0.984375 -8.617188 1.054688 -8.804688 1.203125 -8.953125 C 1.359375 -9.109375 1.550781 -9.1875 1.78125 -9.1875 L 6.1875 -9.1875 C 6.40625 -9.1875 6.59375 -9.113281 6.75 -8.96875 C 6.90625 -8.820312 6.984375 -8.632812 6.984375 -8.40625 C 6.984375 -8.1875 6.90625 -8.007812 6.75 -7.875 C 6.601562 -7.738281 6.414062 -7.671875 6.1875 -7.671875 L 2.625 -7.671875 L 2.625 -5.453125 L 5.59375 -5.453125 C 5.820312 -5.453125 6.007812 -5.378906 6.15625 -5.234375 C 6.3125 -5.085938 6.390625 -4.898438 6.390625 -4.671875 C 6.390625 -4.453125 6.316406 -4.273438 6.171875 -4.140625 C 6.023438 -4.003906 5.832031 -3.9375 5.59375 -3.9375 L 2.625 -3.9375 L 2.625 -1.515625 Z M 6.1875 -1.515625 "/></g></g></g><g fill="#004aad" fill-opacity="1"><g transform="translate(217.059244, 247.719418)"><g><path d="M 8.1875 -1.03125 C 8.226562 -0.914062 8.25 -0.804688 8.25 -0.703125 C 8.25 -0.484375 8.175781 -0.300781 8.03125 -0.15625 C 7.882812 -0.0078125 7.710938 0.0625 7.515625 0.0625 C 7.359375 0.0625 7.21875 0.015625 7.09375 -0.078125 C 6.96875 -0.171875 6.867188 -0.300781 6.796875 -0.46875 L 6.109375 -2.0625 L 2.203125 -2.0625 L 1.515625 -0.453125 C 1.460938 -0.285156 1.367188 -0.15625 1.234375 -0.0625 C 1.109375 0.0195312 0.972656 0.0625 0.828125 0.0625 C 0.597656 0.0625 0.421875 0.00390625 0.296875 -0.109375 C 0.179688 -0.234375 0.125 -0.398438 0.125 -0.609375 C 0.125 -0.691406 0.140625 -0.773438 0.171875 -0.859375 L 3.4375 -8.71875 C 3.507812 -8.894531 3.613281 -9.03125 3.75 -9.125 C 3.894531 -9.21875 4.050781 -9.253906 4.21875 -9.234375 C 4.382812 -9.234375 4.535156 -9.1875 4.671875 -9.09375 C 4.804688 -9.007812 4.90625 -8.882812 4.96875 -8.71875 Z M 2.84375 -3.5625 L 5.46875 -3.5625 L 4.140625 -6.640625 Z M 2.84375 -3.5625 "/></g></g></g><g fill="#004aad" fill-opacity="1"><g transform="translate(228.08558, 247.719418)"><g><path d="M 6.046875 -1.53125 C 6.273438 -1.53125 6.460938 -1.457031 6.609375 -1.3125 C 6.765625 -1.175781 6.84375 -0.992188 6.84375 -0.765625 C 6.84375 -0.546875 6.765625 -0.363281 6.609375 -0.21875 C 6.460938 -0.0703125 6.273438 0 6.046875 0 L 1.78125 0 C 1.550781 0 1.359375 -0.0703125 1.203125 -0.21875 C 1.054688 -0.375 0.984375 -0.566406 0.984375 -0.796875 L 0.984375 -8.390625 C 0.984375 -8.617188 1.0625 -8.804688 1.21875 -8.953125 C 1.375 -9.109375 1.578125 -9.1875 1.828125 -9.1875 C 2.046875 -9.1875 2.234375 -9.109375 2.390625 -8.953125 C 2.546875 -8.804688 2.625 -8.617188 2.625 -8.390625 L 2.625 -1.53125 Z M 6.046875 -1.53125 "/></g></g></g><g fill="#004aad" fill-opacity="1"><g transform="translate(238.1013, 247.719418)"><g><path d="M 7.015625 -9.1875 C 7.253906 -9.1875 7.445312 -9.113281 7.59375 -8.96875 C 7.75 -8.832031 7.828125 -8.648438 7.828125 -8.421875 C 7.828125 -8.191406 7.75 -8.007812 7.59375 -7.875 C 7.445312 -7.738281 7.253906 -7.671875 7.015625 -7.671875 L 4.96875 -7.671875 L 4.96875 -0.796875 C 4.96875 -0.566406 4.882812 -0.375 4.71875 -0.21875 C 4.550781 -0.0703125 4.34375 0 4.09375 0 C 3.851562 0 3.648438 -0.0703125 3.484375 -0.21875 C 3.328125 -0.375 3.25 -0.566406 3.25 -0.796875 L 3.25 -7.671875 L 1.1875 -7.671875 C 0.957031 -7.671875 0.765625 -7.738281 0.609375 -7.875 C 0.460938 -8.019531 0.390625 -8.207031 0.390625 -8.4375 C 0.390625 -8.65625 0.46875 -8.832031 0.625 -8.96875 C 0.78125 -9.113281 0.96875 -9.1875 1.1875 -9.1875 Z M 7.015625 -9.1875 "/></g></g></g><g fill="#004aad" fill-opacity="1"><g transform="translate(248.957016, 247.719418)"><g><path d="M 7.640625 -9.1875 C 7.878906 -9.1875 8.070312 -9.109375 8.21875 -8.953125 C 8.375 -8.804688 8.453125 -8.617188 8.453125 -8.390625 L 8.453125 -0.796875 C 8.453125 -0.566406 8.375 -0.375 8.21875 -0.21875 C 8.0625 -0.0703125 7.859375 0 7.609375 0 C 7.390625 0 7.203125 -0.0703125 7.046875 -0.21875 C 6.890625 -0.375 6.8125 -0.566406 6.8125 -0.796875 L 6.8125 -3.859375 L 2.625 -3.859375 L 2.625 -0.796875 C 2.625 -0.566406 2.539062 -0.375 2.375 -0.21875 C 2.207031 -0.0703125 2.015625 0 1.796875 0 C 1.554688 0 1.359375 -0.0703125 1.203125 -0.21875 C 1.054688 -0.375 0.984375 -0.566406 0.984375 -0.796875 L 0.984375 -8.390625 C 0.984375 -8.617188 1.0625 -8.804688 1.21875 -8.953125 C 1.375 -9.109375 1.578125 -9.1875 1.828125 -9.1875 C 2.046875 -9.1875 2.234375 -9.109375 2.390625 -8.953125 C 2.546875 -8.804688 2.625 -8.617188 2.625 -8.390625 L 2.625 -5.375 L 6.8125 -5.375 L 6.8125 -8.390625 C 6.8125 -8.617188 6.894531 -8.804688 7.0625 -8.953125 C 7.226562 -9.109375 7.421875 -9.1875 7.640625 -9.1875 Z M 7.640625 -9.1875 "/></g></g></g><g fill="#004aad" fill-opacity="1"><g transform="translate(261.033347, 247.719418)"><g/></g></g><g fill="#004aad" fill-opacity="1"><g transform="translate(267.34783, 247.719418)"><g><path d="M 2.625 -0.796875 C 2.625 -0.566406 2.539062 -0.375 2.375 -0.21875 C 2.207031 -0.0703125 2.015625 0 1.796875 0 C 1.554688 0 1.359375 -0.0703125 1.203125 -0.21875 C 1.054688 -0.375 0.984375 -0.566406 0.984375 -0.796875 L 0.984375 -8.390625 C 0.984375 -8.617188 1.0625 -8.804688 1.21875 -8.953125 C 1.375 -9.109375 1.578125 -9.1875 1.828125 -9.1875 C 2.046875 -9.1875 2.234375 -9.109375 2.390625 -8.953125 C 2.546875 -8.804688 2.625 -8.617188 2.625 -8.390625 Z M 2.625 -0.796875 "/></g></g></g><g fill="#004aad" fill-opacity="1"><g transform="translate(273.596693, 247.719418)"><g><path d="M 3.9375 0.125 C 3.3125 0.125 2.75 0.046875 2.25 -0.109375 C 1.757812 -0.265625 1.300781 -0.53125 0.875 -0.90625 C 0.644531 -1.113281 0.53125 -1.34375 0.53125 -1.59375 C 0.53125 -1.800781 0.601562 -1.976562 0.75 -2.125 C 0.894531 -2.28125 1.070312 -2.359375 1.28125 -2.359375 C 1.445312 -2.359375 1.597656 -2.304688 1.734375 -2.203125 C 2.078125 -1.910156 2.414062 -1.695312 2.75 -1.5625 C 3.082031 -1.4375 3.476562 -1.375 3.9375 -1.375 C 4.425781 -1.375 4.847656 -1.484375 5.203125 -1.703125 C 5.554688 -1.921875 5.734375 -2.191406 5.734375 -2.515625 C 5.734375 -2.910156 5.554688 -3.21875 5.203125 -3.4375 C 4.859375 -3.664062 4.304688 -3.835938 3.546875 -3.953125 C 1.628906 -4.234375 0.671875 -5.125 0.671875 -6.625 C 0.671875 -7.175781 0.8125 -7.65625 1.09375 -8.0625 C 1.382812 -8.46875 1.78125 -8.773438 2.28125 -8.984375 C 2.78125 -9.203125 3.335938 -9.3125 3.953125 -9.3125 C 4.503906 -9.3125 5.019531 -9.226562 5.5 -9.0625 C 5.988281 -8.894531 6.394531 -8.675781 6.71875 -8.40625 C 6.96875 -8.207031 7.09375 -7.976562 7.09375 -7.71875 C 7.09375 -7.519531 7.019531 -7.34375 6.875 -7.1875 C 6.726562 -7.03125 6.554688 -6.953125 6.359375 -6.953125 C 6.222656 -6.953125 6.101562 -6.992188 6 -7.078125 C 5.769531 -7.253906 5.453125 -7.421875 5.046875 -7.578125 C 4.640625 -7.734375 4.273438 -7.8125 3.953125 -7.8125 C 3.398438 -7.8125 2.972656 -7.707031 2.671875 -7.5 C 2.367188 -7.289062 2.21875 -7.019531 2.21875 -6.6875 C 2.21875 -6.3125 2.375 -6.023438 2.6875 -5.828125 C 3 -5.640625 3.484375 -5.488281 4.140625 -5.375 C 4.898438 -5.238281 5.503906 -5.066406 5.953125 -4.859375 C 6.398438 -4.648438 6.738281 -4.367188 6.96875 -4.015625 C 7.195312 -3.660156 7.3125 -3.191406 7.3125 -2.609375 C 7.3125 -2.054688 7.15625 -1.570312 6.84375 -1.15625 C 6.53125 -0.738281 6.113281 -0.421875 5.59375 -0.203125 C 5.082031 0.015625 4.53125 0.125 3.9375 0.125 Z M 3.9375 0.125 "/></g></g></g><g fill="#004aad" fill-opacity="1"><g transform="translate(127.442055, 265.719417)"><g><path d="M 9.4375 -4.59375 C 9.4375 -3.726562 9.242188 -2.929688 8.859375 -2.203125 C 8.472656 -1.484375 7.941406 -0.914062 7.265625 -0.5 C 6.585938 -0.0820312 5.820312 0.125 4.96875 0.125 C 4.125 0.125 3.363281 -0.0820312 2.6875 -0.5 C 2.007812 -0.914062 1.476562 -1.484375 1.09375 -2.203125 C 0.71875 -2.929688 0.53125 -3.726562 0.53125 -4.59375 C 0.53125 -5.457031 0.71875 -6.25 1.09375 -6.96875 C 1.476562 -7.695312 2.007812 -8.269531 2.6875 -8.6875 C 3.363281 -9.101562 4.125 -9.3125 4.96875 -9.3125 C 5.820312 -9.3125 6.585938 -9.101562 7.265625 -8.6875 C 7.941406 -8.269531 8.472656 -7.695312 8.859375 -6.96875 C 9.242188 -6.25 9.4375 -5.457031 9.4375 -4.59375 Z M 7.734375 -4.59375 C 7.734375 -5.175781 7.613281 -5.707031 7.375 -6.1875 C 7.132812 -6.664062 6.804688 -7.046875 6.390625 -7.328125 C 5.972656 -7.609375 5.5 -7.75 4.96875 -7.75 C 4.4375 -7.75 3.960938 -7.609375 3.546875 -7.328125 C 3.128906 -7.054688 2.804688 -6.675781 2.578125 -6.1875 C 2.347656 -5.707031 2.234375 -5.175781 2.234375 -4.59375 C 2.234375 -4.007812 2.347656 -3.472656 2.578125 -2.984375 C 2.804688 -2.503906 3.128906 -2.125 3.546875 -1.84375 C 3.960938 -1.570312 4.4375 -1.4375 4.96875 -1.4375 C 5.5 -1.4375 5.972656 -1.578125 6.390625 -1.859375 C 6.804688 -2.140625 7.132812 -2.519531 7.375 -3 C 7.613281 -3.476562 7.734375 -4.007812 7.734375 -4.59375 Z M 7.734375 -4.59375 "/></g></g></g><g fill="#004aad" fill-opacity="1"><g transform="translate(140.043381, 265.719417)"><g><path d="M 7.5 -9.203125 C 7.726562 -9.203125 7.910156 -9.125 8.046875 -8.96875 C 8.191406 -8.820312 8.265625 -8.632812 8.265625 -8.40625 L 8.265625 -3.65625 C 8.265625 -2.925781 8.109375 -2.28125 7.796875 -1.71875 C 7.492188 -1.15625 7.066406 -0.71875 6.515625 -0.40625 C 5.972656 -0.09375 5.347656 0.0625 4.640625 0.0625 C 3.921875 0.0625 3.285156 -0.09375 2.734375 -0.40625 C 2.179688 -0.71875 1.75 -1.15625 1.4375 -1.71875 C 1.132812 -2.28125 0.984375 -2.925781 0.984375 -3.65625 L 0.984375 -8.40625 C 0.984375 -8.625 1.0625 -8.8125 1.21875 -8.96875 C 1.375 -9.125 1.578125 -9.203125 1.828125 -9.203125 C 2.035156 -9.203125 2.21875 -9.125 2.375 -8.96875 C 2.53125 -8.8125 2.609375 -8.625 2.609375 -8.40625 L 2.609375 -3.65625 C 2.609375 -3.226562 2.695312 -2.847656 2.875 -2.515625 C 3.0625 -2.191406 3.3125 -1.941406 3.625 -1.765625 C 3.9375 -1.597656 4.273438 -1.515625 4.640625 -1.515625 C 5.015625 -1.515625 5.363281 -1.597656 5.6875 -1.765625 C 6.019531 -1.941406 6.28125 -2.191406 6.46875 -2.515625 C 6.664062 -2.847656 6.765625 -3.226562 6.765625 -3.65625 L 6.765625 -8.40625 C 6.765625 -8.632812 6.832031 -8.820312 6.96875 -8.96875 C 7.101562 -9.125 7.28125 -9.203125 7.5 -9.203125 Z M 7.5 -9.203125 "/></g></g></g><g fill="#004aad" fill-opacity="1"><g transform="translate(151.935963, 265.719417)"><g><path d="M 8.1875 -1.28125 C 8.300781 -1.21875 8.390625 -1.128906 8.453125 -1.015625 C 8.523438 -0.898438 8.5625 -0.78125 8.5625 -0.65625 C 8.5625 -0.5 8.507812 -0.351562 8.40625 -0.21875 C 8.269531 -0.0625 8.066406 0.015625 7.796875 0.015625 C 7.585938 0.015625 7.394531 -0.03125 7.21875 -0.125 C 6.59375 -0.488281 6.28125 -1.222656 6.28125 -2.328125 C 6.28125 -2.640625 6.175781 -2.882812 5.96875 -3.0625 C 5.757812 -3.25 5.460938 -3.34375 5.078125 -3.34375 L 2.625 -3.34375 L 2.625 -0.796875 C 2.625 -0.566406 2.5625 -0.375 2.4375 -0.21875 C 2.3125 -0.0703125 2.140625 0 1.921875 0 C 1.671875 0 1.453125 -0.0703125 1.265625 -0.21875 C 1.078125 -0.375 0.984375 -0.566406 0.984375 -0.796875 L 0.984375 -8.390625 C 0.984375 -8.617188 1.054688 -8.804688 1.203125 -8.953125 C 1.359375 -9.109375 1.550781 -9.1875 1.78125 -9.1875 L 5.5625 -9.1875 C 6.019531 -9.1875 6.445312 -9.0625 6.84375 -8.8125 C 7.25 -8.570312 7.570312 -8.238281 7.8125 -7.8125 C 8.050781 -7.382812 8.171875 -6.898438 8.171875 -6.359375 C 8.171875 -5.921875 8.050781 -5.492188 7.8125 -5.078125 C 7.582031 -4.671875 7.28125 -4.34375 6.90625 -4.09375 C 7.457031 -3.707031 7.757812 -3.191406 7.8125 -2.546875 C 7.832031 -2.410156 7.84375 -2.273438 7.84375 -2.140625 C 7.882812 -1.867188 7.921875 -1.671875 7.953125 -1.546875 C 7.984375 -1.429688 8.0625 -1.34375 8.1875 -1.28125 Z M 5.5 -4.703125 C 5.65625 -4.703125 5.804688 -4.773438 5.953125 -4.921875 C 6.109375 -5.066406 6.234375 -5.265625 6.328125 -5.515625 C 6.421875 -5.765625 6.46875 -6.035156 6.46875 -6.328125 C 6.46875 -6.566406 6.421875 -6.789062 6.328125 -7 C 6.234375 -7.207031 6.109375 -7.367188 5.953125 -7.484375 C 5.804688 -7.609375 5.65625 -7.671875 5.5 -7.671875 L 2.625 -7.671875 L 2.625 -4.703125 Z M 5.5 -4.703125 "/></g></g></g><g fill="#004aad" fill-opacity="1"><g transform="translate(163.592293, 265.719417)"><g/></g></g><g fill="#004aad" fill-opacity="1"><g transform="translate(169.906774, 265.719417)"><g><path d="M 4.78125 -9.1875 C 5.226562 -9.1875 5.648438 -9.050781 6.046875 -8.78125 C 6.453125 -8.519531 6.773438 -8.160156 7.015625 -7.703125 C 7.265625 -7.253906 7.390625 -6.765625 7.390625 -6.234375 C 7.390625 -5.710938 7.265625 -5.222656 7.015625 -4.765625 C 6.773438 -4.304688 6.453125 -3.941406 6.046875 -3.671875 C 5.648438 -3.410156 5.226562 -3.28125 4.78125 -3.28125 L 2.5 -3.28125 L 2.5 -0.796875 C 2.5 -0.566406 2.425781 -0.375 2.28125 -0.21875 C 2.144531 -0.0703125 1.960938 0 1.734375 0 C 1.515625 0 1.332031 -0.0703125 1.1875 -0.21875 C 1.050781 -0.375 0.984375 -0.566406 0.984375 -0.796875 L 0.984375 -8.390625 C 0.984375 -8.617188 1.054688 -8.804688 1.203125 -8.953125 C 1.359375 -9.109375 1.550781 -9.1875 1.78125 -9.1875 Z M 4.78125 -4.78125 C 4.945312 -4.78125 5.109375 -4.847656 5.265625 -4.984375 C 5.429688 -5.128906 5.5625 -5.3125 5.65625 -5.53125 C 5.757812 -5.75 5.8125 -5.984375 5.8125 -6.234375 C 5.8125 -6.484375 5.757812 -6.71875 5.65625 -6.9375 C 5.5625 -7.15625 5.429688 -7.332031 5.265625 -7.46875 C 5.109375 -7.601562 4.945312 -7.671875 4.78125 -7.671875 L 2.5 -7.671875 L 2.5 -4.78125 Z M 4.78125 -4.78125 "/></g></g></g><g fill="#004aad" fill-opacity="1"><g transform="translate(180.460618, 265.719417)"><g><path d="M 8.1875 -1.28125 C 8.300781 -1.21875 8.390625 -1.128906 8.453125 -1.015625 C 8.523438 -0.898438 8.5625 -0.78125 8.5625 -0.65625 C 8.5625 -0.5 8.507812 -0.351562 8.40625 -0.21875 C 8.269531 -0.0625 8.066406 0.015625 7.796875 0.015625 C 7.585938 0.015625 7.394531 -0.03125 7.21875 -0.125 C 6.59375 -0.488281 6.28125 -1.222656 6.28125 -2.328125 C 6.28125 -2.640625 6.175781 -2.882812 5.96875 -3.0625 C 5.757812 -3.25 5.460938 -3.34375 5.078125 -3.34375 L 2.625 -3.34375 L 2.625 -0.796875 C 2.625 -0.566406 2.5625 -0.375 2.4375 -0.21875 C 2.3125 -0.0703125 2.140625 0 1.921875 0 C 1.671875 0 1.453125 -0.0703125 1.265625 -0.21875 C 1.078125 -0.375 0.984375 -0.566406 0.984375 -0.796875 L 0.984375 -8.390625 C 0.984375 -8.617188 1.054688 -8.804688 1.203125 -8.953125 C 1.359375 -9.109375 1.550781 -9.1875 1.78125 -9.1875 L 5.5625 -9.1875 C 6.019531 -9.1875 6.445312 -9.0625 6.84375 -8.8125 C 7.25 -8.570312 7.570312 -8.238281 7.8125 -7.8125 C 8.050781 -7.382812 8.171875 -6.898438 8.171875 -6.359375 C 8.171875 -5.921875 8.050781 -5.492188 7.8125 -5.078125 C 7.582031 -4.671875 7.28125 -4.34375 6.90625 -4.09375 C 7.457031 -3.707031 7.757812 -3.191406 7.8125 -2.546875 C 7.832031 -2.410156 7.84375 -2.273438 7.84375 -2.140625 C 7.882812 -1.867188 7.921875 -1.671875 7.953125 -1.546875 C 7.984375 -1.429688 8.0625 -1.34375 8.1875 -1.28125 Z M 5.5 -4.703125 C 5.65625 -4.703125 5.804688 -4.773438 5.953125 -4.921875 C 6.109375 -5.066406 6.234375 -5.265625 6.328125 -5.515625 C 6.421875 -5.765625 6.46875 -6.035156 6.46875 -6.328125 C 6.46875 -6.566406 6.421875 -6.789062 6.328125 -7 C 6.234375 -7.207031 6.109375 -7.367188 5.953125 -7.484375 C 5.804688 -7.609375 5.65625 -7.671875 5.5 -7.671875 L 2.625 -7.671875 L 2.625 -4.703125 Z M 5.5 -4.703125 "/></g></g></g><g fill="#004aad" fill-opacity="1"><g transform="translate(192.116951, 265.719417)"><g><path d="M 2.625 -0.796875 C 2.625 -0.566406 2.539062 -0.375 2.375 -0.21875 C 2.207031 -0.0703125 2.015625 0 1.796875 0 C 1.554688 0 1.359375 -0.0703125 1.203125 -0.21875 C 1.054688 -0.375 0.984375 -0.566406 0.984375 -0.796875 L 0.984375 -8.390625 C 0.984375 -8.617188 1.0625 -8.804688 1.21875 -8.953125 C 1.375 -9.109375 1.578125 -9.1875 1.828125 -9.1875 C 2.046875 -9.1875 2.234375 -9.109375 2.390625 -8.953125 C 2.546875 -8.804688 2.625 -8.617188 2.625 -8.390625 Z M 2.625 -0.796875 "/></g></g></g><g fill="#004aad" fill-opacity="1"><g transform="translate(198.365814, 265.719417)"><g><path d="M 9.4375 -4.59375 C 9.4375 -3.726562 9.242188 -2.929688 8.859375 -2.203125 C 8.472656 -1.484375 7.941406 -0.914062 7.265625 -0.5 C 6.585938 -0.0820312 5.820312 0.125 4.96875 0.125 C 4.125 0.125 3.363281 -0.0820312 2.6875 -0.5 C 2.007812 -0.914062 1.476562 -1.484375 1.09375 -2.203125 C 0.71875 -2.929688 0.53125 -3.726562 0.53125 -4.59375 C 0.53125 -5.457031 0.71875 -6.25 1.09375 -6.96875 C 1.476562 -7.695312 2.007812 -8.269531 2.6875 -8.6875 C 3.363281 -9.101562 4.125 -9.3125 4.96875 -9.3125 C 5.820312 -9.3125 6.585938 -9.101562 7.265625 -8.6875 C 7.941406 -8.269531 8.472656 -7.695312 8.859375 -6.96875 C 9.242188 -6.25 9.4375 -5.457031 9.4375 -4.59375 Z M 7.734375 -4.59375 C 7.734375 -5.175781 7.613281 -5.707031 7.375 -6.1875 C 7.132812 -6.664062 6.804688 -7.046875 6.390625 -7.328125 C 5.972656 -7.609375 5.5 -7.75 4.96875 -7.75 C 4.4375 -7.75 3.960938 -7.609375 3.546875 -7.328125 C 3.128906 -7.054688 2.804688 -6.675781 2.578125 -6.1875 C 2.347656 -5.707031 2.234375 -5.175781 2.234375 -4.59375 C 2.234375 -4.007812 2.347656 -3.472656 2.578125 -2.984375 C 2.804688 -2.503906 3.128906 -2.125 3.546875 -1.84375 C 3.960938 -1.570312 4.4375 -1.4375 4.96875 -1.4375 C 5.5 -1.4375 5.972656 -1.578125 6.390625 -1.859375 C 6.804688 -2.140625 7.132812 -2.519531 7.375 -3 C 7.613281 -3.476562 7.734375 -4.007812 7.734375 -4.59375 Z M 7.734375 -4.59375 "/></g></g></g><g fill="#004aad" fill-opacity="1"><g transform="translate(210.967142, 265.719417)"><g><path d="M 8.1875 -1.28125 C 8.300781 -1.21875 8.390625 -1.128906 8.453125 -1.015625 C 8.523438 -0.898438 8.5625 -0.78125 8.5625 -0.65625 C 8.5625 -0.5 8.507812 -0.351562 8.40625 -0.21875 C 8.269531 -0.0625 8.066406 0.015625 7.796875 0.015625 C 7.585938 0.015625 7.394531 -0.03125 7.21875 -0.125 C 6.59375 -0.488281 6.28125 -1.222656 6.28125 -2.328125 C 6.28125 -2.640625 6.175781 -2.882812 5.96875 -3.0625 C 5.757812 -3.25 5.460938 -3.34375 5.078125 -3.34375 L 2.625 -3.34375 L 2.625 -0.796875 C 2.625 -0.566406 2.5625 -0.375 2.4375 -0.21875 C 2.3125 -0.0703125 2.140625 0 1.921875 0 C 1.671875 0 1.453125 -0.0703125 1.265625 -0.21875 C 1.078125 -0.375 0.984375 -0.566406 0.984375 -0.796875 L 0.984375 -8.390625 C 0.984375 -8.617188 1.054688 -8.804688 1.203125 -8.953125 C 1.359375 -9.109375 1.550781 -9.1875 1.78125 -9.1875 L 5.5625 -9.1875 C 6.019531 -9.1875 6.445312 -9.0625 6.84375 -8.8125 C 7.25 -8.570312 7.570312 -8.238281 7.8125 -7.8125 C 8.050781 -7.382812 8.171875 -6.898438 8.171875 -6.359375 C 8.171875 -5.921875 8.050781 -5.492188 7.8125 -5.078125 C 7.582031 -4.671875 7.28125 -4.34375 6.90625 -4.09375 C 7.457031 -3.707031 7.757812 -3.191406 7.8125 -2.546875 C 7.832031 -2.410156 7.84375 -2.273438 7.84375 -2.140625 C 7.882812 -1.867188 7.921875 -1.671875 7.953125 -1.546875 C 7.984375 -1.429688 8.0625 -1.34375 8.1875 -1.28125 Z M 5.5 -4.703125 C 5.65625 -4.703125 5.804688 -4.773438 5.953125 -4.921875 C 6.109375 -5.066406 6.234375 -5.265625 6.328125 -5.515625 C 6.421875 -5.765625 6.46875 -6.035156 6.46875 -6.328125 C 6.46875 -6.566406 6.421875 -6.789062 6.328125 -7 C 6.234375 -7.207031 6.109375 -7.367188 5.953125 -7.484375 C 5.804688 -7.609375 5.65625 -7.671875 5.5 -7.671875 L 2.625 -7.671875 L 2.625 -4.703125 Z M 5.5 -4.703125 "/></g></g></g><g fill="#004aad" fill-opacity="1"><g transform="translate(222.623476, 265.719417)"><g><path d="M 2.625 -0.796875 C 2.625 -0.566406 2.539062 -0.375 2.375 -0.21875 C 2.207031 -0.0703125 2.015625 0 1.796875 0 C 1.554688 0 1.359375 -0.0703125 1.203125 -0.21875 C 1.054688 -0.375 0.984375 -0.566406 0.984375 -0.796875 L 0.984375 -8.390625 C 0.984375 -8.617188 1.0625 -8.804688 1.21875 -8.953125 C 1.375 -9.109375 1.578125 -9.1875 1.828125 -9.1875 C 2.046875 -9.1875 2.234375 -9.109375 2.390625 -8.953125 C 2.546875 -8.804688 2.625 -8.617188 2.625 -8.390625 Z M 2.625 -0.796875 "/></g></g></g><g fill="#004aad" fill-opacity="1"><g transform="translate(228.872338, 265.719417)"><g><path d="M 7.015625 -9.1875 C 7.253906 -9.1875 7.445312 -9.113281 7.59375 -8.96875 C 7.75 -8.832031 7.828125 -8.648438 7.828125 -8.421875 C 7.828125 -8.191406 7.75 -8.007812 7.59375 -7.875 C 7.445312 -7.738281 7.253906 -7.671875 7.015625 -7.671875 L 4.96875 -7.671875 L 4.96875 -0.796875 C 4.96875 -0.566406 4.882812 -0.375 4.71875 -0.21875 C 4.550781 -0.0703125 4.34375 0 4.09375 0 C 3.851562 0 3.648438 -0.0703125 3.484375 -0.21875 C 3.328125 -0.375 3.25 -0.566406 3.25 -0.796875 L 3.25 -7.671875 L 1.1875 -7.671875 C 0.957031 -7.671875 0.765625 -7.738281 0.609375 -7.875 C 0.460938 -8.019531 0.390625 -8.207031 0.390625 -8.4375 C 0.390625 -8.65625 0.46875 -8.832031 0.625 -8.96875 C 0.78125 -9.113281 0.96875 -9.1875 1.1875 -9.1875 Z M 7.015625 -9.1875 "/></g></g></g><g fill="#004aad" fill-opacity="1"><g transform="translate(239.728054, 265.719417)"><g><path d="M 7.625 -8.40625 C 7.625 -8.238281 7.578125 -8.078125 7.484375 -7.921875 L 4.734375 -4 L 4.734375 -0.796875 C 4.734375 -0.566406 4.660156 -0.375 4.515625 -0.21875 C 4.367188 -0.0703125 4.191406 0 3.984375 0 C 3.765625 0 3.578125 -0.0703125 3.421875 -0.21875 C 3.265625 -0.375 3.1875 -0.566406 3.1875 -0.796875 L 3.1875 -4.1875 L 0.453125 -7.8125 C 0.296875 -8.019531 0.21875 -8.222656 0.21875 -8.421875 C 0.21875 -8.648438 0.304688 -8.84375 0.484375 -9 C 0.671875 -9.15625 0.863281 -9.234375 1.0625 -9.234375 C 1.3125 -9.234375 1.523438 -9.109375 1.703125 -8.859375 L 4.015625 -5.671875 L 6.1875 -8.828125 C 6.363281 -9.097656 6.582031 -9.234375 6.84375 -9.234375 C 7.050781 -9.234375 7.234375 -9.148438 7.390625 -8.984375 C 7.546875 -8.828125 7.625 -8.632812 7.625 -8.40625 Z M 7.625 -8.40625 "/></g></g></g><g fill="#004aad" fill-opacity="1"><g transform="translate(90.259055, 228.526024)"><g><path d="M 17.109375 -2.140625 C 17.203125 -1.898438 17.25 -1.679688 17.25 -1.484375 C 17.25 -1.003906 17.09375 -0.613281 16.78125 -0.3125 C 16.46875 -0.0078125 16.113281 0.140625 15.71875 0.140625 C 15.382812 0.140625 15.082031 0.0390625 14.8125 -0.15625 C 14.550781 -0.363281 14.347656 -0.640625 14.203125 -0.984375 L 12.78125 -4.3125 L 4.609375 -4.3125 L 3.1875 -0.953125 C 3.050781 -0.609375 2.847656 -0.335938 2.578125 -0.140625 C 2.316406 0.046875 2.035156 0.140625 1.734375 0.140625 C 1.253906 0.140625 0.890625 0.015625 0.640625 -0.234375 C 0.398438 -0.492188 0.28125 -0.84375 0.28125 -1.28125 C 0.28125 -1.445312 0.304688 -1.625 0.359375 -1.8125 L 7.1875 -18.203125 C 7.332031 -18.566406 7.550781 -18.847656 7.84375 -19.046875 C 8.132812 -19.253906 8.460938 -19.34375 8.828125 -19.3125 C 9.160156 -19.3125 9.46875 -19.210938 9.75 -19.015625 C 10.03125 -18.828125 10.234375 -18.554688 10.359375 -18.203125 Z M 5.953125 -7.453125 L 11.4375 -7.453125 L 8.671875 -13.875 Z M 5.953125 -7.453125 "/></g></g></g><g fill="#004aad" fill-opacity="1"><g transform="translate(108.714368, 228.526024)"><g><path d="M 10.28125 -19.203125 C 12 -19.203125 13.472656 -18.773438 14.703125 -17.921875 C 15.941406 -17.066406 16.882812 -15.910156 17.53125 -14.453125 C 18.1875 -13.003906 18.515625 -11.382812 18.515625 -9.59375 C 18.515625 -7.800781 18.1875 -6.175781 17.53125 -4.71875 C 16.882812 -3.269531 15.941406 -2.117188 14.703125 -1.265625 C 13.472656 -0.421875 12 0 10.28125 0 L 3.734375 0 C 3.253906 0 2.851562 -0.15625 2.53125 -0.46875 C 2.21875 -0.789062 2.0625 -1.191406 2.0625 -1.671875 L 2.0625 -17.515625 C 2.0625 -17.992188 2.21875 -18.394531 2.53125 -18.71875 C 2.851562 -19.039062 3.253906 -19.203125 3.734375 -19.203125 Z M 10.015625 -3.15625 C 11.660156 -3.15625 12.890625 -3.757812 13.703125 -4.96875 C 14.523438 -6.1875 14.9375 -7.726562 14.9375 -9.59375 C 14.9375 -11.457031 14.519531 -13 13.6875 -14.21875 C 12.863281 -15.4375 11.640625 -16.046875 10.015625 -16.046875 L 5.484375 -16.046875 L 5.484375 -3.15625 Z M 10.015625 -3.15625 "/></g></g></g><g fill="#004aad" fill-opacity="1"><g transform="translate(129.253742, 228.526024)"><g><path d="M 17.109375 -2.140625 C 17.203125 -1.898438 17.25 -1.679688 17.25 -1.484375 C 17.25 -1.003906 17.09375 -0.613281 16.78125 -0.3125 C 16.46875 -0.0078125 16.113281 0.140625 15.71875 0.140625 C 15.382812 0.140625 15.082031 0.0390625 14.8125 -0.15625 C 14.550781 -0.363281 14.347656 -0.640625 14.203125 -0.984375 L 12.78125 -4.3125 L 4.609375 -4.3125 L 3.1875 -0.953125 C 3.050781 -0.609375 2.847656 -0.335938 2.578125 -0.140625 C 2.316406 0.046875 2.035156 0.140625 1.734375 0.140625 C 1.253906 0.140625 0.890625 0.015625 0.640625 -0.234375 C 0.398438 -0.492188 0.28125 -0.84375 0.28125 -1.28125 C 0.28125 -1.445312 0.304688 -1.625 0.359375 -1.8125 L 7.1875 -18.203125 C 7.332031 -18.566406 7.550781 -18.847656 7.84375 -19.046875 C 8.132812 -19.253906 8.460938 -19.34375 8.828125 -19.3125 C 9.160156 -19.3125 9.46875 -19.210938 9.75 -19.015625 C 10.03125 -18.828125 10.234375 -18.554688 10.359375 -18.203125 Z M 5.953125 -7.453125 L 11.4375 -7.453125 L 8.671875 -13.875 Z M 5.953125 -7.453125 "/></g></g></g><g fill="#004aad" fill-opacity="1"><g transform="translate(147.709056, 228.526024)"><g/></g></g><g fill="#004aad" fill-opacity="1"><g transform="translate(156.319933, 228.526024)"><g><path d="M 9.984375 -19.203125 C 10.910156 -19.203125 11.796875 -18.921875 12.640625 -18.359375 C 13.484375 -17.796875 14.160156 -17.046875 14.671875 -16.109375 C 15.179688 -15.171875 15.4375 -14.144531 15.4375 -13.03125 C 15.4375 -11.925781 15.179688 -10.898438 14.671875 -9.953125 C 14.160156 -9.003906 13.484375 -8.25 12.640625 -7.6875 C 11.796875 -7.132812 10.910156 -6.859375 9.984375 -6.859375 L 5.203125 -6.859375 L 5.203125 -1.671875 C 5.203125 -1.179688 5.054688 -0.78125 4.765625 -0.46875 C 4.472656 -0.15625 4.09375 0 3.625 0 C 3.164062 0 2.789062 -0.15625 2.5 -0.46875 C 2.207031 -0.789062 2.0625 -1.191406 2.0625 -1.671875 L 2.0625 -17.515625 C 2.0625 -17.992188 2.21875 -18.394531 2.53125 -18.71875 C 2.851562 -19.039062 3.253906 -19.203125 3.734375 -19.203125 Z M 9.984375 -9.984375 C 10.328125 -9.984375 10.664062 -10.128906 11 -10.421875 C 11.34375 -10.710938 11.617188 -11.085938 11.828125 -11.546875 C 12.035156 -12.015625 12.140625 -12.507812 12.140625 -13.03125 C 12.140625 -13.539062 12.035156 -14.023438 11.828125 -14.484375 C 11.617188 -14.953125 11.34375 -15.328125 11 -15.609375 C 10.664062 -15.898438 10.328125 -16.046875 9.984375 -16.046875 L 5.203125 -16.046875 L 5.203125 -9.984375 Z M 9.984375 -9.984375 "/></g></g></g><g fill="#004aad" fill-opacity="1"><g transform="translate(173.788057, 228.526024)"><g><path d="M 12.921875 -3.15625 C 13.390625 -3.15625 13.785156 -2.992188 14.109375 -2.671875 C 14.429688 -2.347656 14.59375 -1.976562 14.59375 -1.5625 C 14.59375 -1.101562 14.429688 -0.726562 14.109375 -0.4375 C 13.785156 -0.144531 13.390625 0 12.921875 0 L 3.734375 0 C 3.253906 0 2.851562 -0.15625 2.53125 -0.46875 C 2.21875 -0.789062 2.0625 -1.191406 2.0625 -1.671875 L 2.0625 -17.515625 C 2.0625 -17.992188 2.21875 -18.394531 2.53125 -18.71875 C 2.851562 -19.039062 3.253906 -19.203125 3.734375 -19.203125 L 12.921875 -19.203125 C 13.390625 -19.203125 13.785156 -19.050781 14.109375 -18.75 C 14.429688 -18.445312 14.59375 -18.054688 14.59375 -17.578125 C 14.59375 -17.117188 14.4375 -16.75 14.125 -16.46875 C 13.8125 -16.1875 13.410156 -16.046875 12.921875 -16.046875 L 5.484375 -16.046875 L 5.484375 -11.375 L 11.6875 -11.375 C 12.15625 -11.375 12.550781 -11.222656 12.875 -10.921875 C 13.195312 -10.617188 13.359375 -10.234375 13.359375 -9.765625 C 13.359375 -9.304688 13.203125 -8.9375 12.890625 -8.65625 C 12.578125 -8.375 12.175781 -8.234375 11.6875 -8.234375 L 5.484375 -8.234375 L 5.484375 -3.15625 Z M 12.921875 -3.15625 "/></g></g></g><g fill="#004aad" fill-opacity="1"><g transform="translate(190.406101, 228.526024)"><g><path d="M 14.671875 -19.203125 C 15.160156 -19.203125 15.5625 -19.050781 15.875 -18.75 C 16.1875 -18.457031 16.34375 -18.078125 16.34375 -17.609375 C 16.34375 -17.128906 16.1875 -16.75 15.875 -16.46875 C 15.5625 -16.1875 15.160156 -16.046875 14.671875 -16.046875 L 10.359375 -16.046875 L 10.359375 -1.671875 C 10.359375 -1.191406 10.1875 -0.789062 9.84375 -0.46875 C 9.5 -0.15625 9.070312 0 8.5625 0 C 8.039062 0 7.613281 -0.15625 7.28125 -0.46875 C 6.957031 -0.789062 6.796875 -1.191406 6.796875 -1.671875 L 6.796875 -16.046875 L 2.5 -16.046875 C 2 -16.046875 1.59375 -16.191406 1.28125 -16.484375 C 0.976562 -16.773438 0.828125 -17.15625 0.828125 -17.625 C 0.828125 -18.082031 0.984375 -18.457031 1.296875 -18.75 C 1.617188 -19.050781 2.019531 -19.203125 2.5 -19.203125 Z M 14.671875 -19.203125 "/></g></g></g><g fill="#004aad" fill-opacity="1"><g transform="translate(208.504931, 228.526024)"><g><path d="M 8.234375 0.28125 C 6.910156 0.28125 5.738281 0.113281 4.71875 -0.21875 C 3.695312 -0.550781 2.738281 -1.109375 1.84375 -1.890625 C 1.34375 -2.328125 1.09375 -2.8125 1.09375 -3.34375 C 1.09375 -3.757812 1.25 -4.128906 1.5625 -4.453125 C 1.875 -4.773438 2.25 -4.9375 2.6875 -4.9375 C 3.03125 -4.9375 3.34375 -4.828125 3.625 -4.609375 C 4.351562 -4.003906 5.0625 -3.5625 5.75 -3.28125 C 6.445312 -3.007812 7.273438 -2.875 8.234375 -2.875 C 9.253906 -2.875 10.132812 -3.101562 10.875 -3.5625 C 11.613281 -4.019531 11.984375 -4.585938 11.984375 -5.265625 C 11.984375 -6.085938 11.617188 -6.726562 10.890625 -7.1875 C 10.160156 -7.65625 9 -8.007812 7.40625 -8.25 C 3.40625 -8.832031 1.40625 -10.695312 1.40625 -13.84375 C 1.40625 -15 1.703125 -16 2.296875 -16.84375 C 2.898438 -17.695312 3.722656 -18.347656 4.765625 -18.796875 C 5.804688 -19.242188 6.96875 -19.46875 8.25 -19.46875 C 9.40625 -19.46875 10.488281 -19.289062 11.5 -18.9375 C 12.519531 -18.59375 13.367188 -18.140625 14.046875 -17.578125 C 14.566406 -17.160156 14.828125 -16.675781 14.828125 -16.125 C 14.828125 -15.707031 14.671875 -15.335938 14.359375 -15.015625 C 14.054688 -14.691406 13.691406 -14.53125 13.265625 -14.53125 C 12.992188 -14.53125 12.75 -14.613281 12.53125 -14.78125 C 12.050781 -15.164062 11.382812 -15.515625 10.53125 -15.828125 C 9.6875 -16.148438 8.925781 -16.3125 8.25 -16.3125 C 7.101562 -16.3125 6.210938 -16.097656 5.578125 -15.671875 C 4.953125 -15.242188 4.640625 -14.679688 4.640625 -13.984375 C 4.640625 -13.203125 4.960938 -12.609375 5.609375 -12.203125 C 6.253906 -11.796875 7.273438 -11.46875 8.671875 -11.21875 C 10.242188 -10.9375 11.5 -10.582031 12.4375 -10.15625 C 13.375 -9.726562 14.082031 -9.144531 14.5625 -8.40625 C 15.039062 -7.664062 15.28125 -6.679688 15.28125 -5.453125 C 15.28125 -4.304688 14.953125 -3.296875 14.296875 -2.421875 C 13.648438 -1.554688 12.785156 -0.890625 11.703125 -0.421875 C 10.628906 0.046875 9.472656 0.28125 8.234375 0.28125 Z M 8.234375 0.28125 "/></g></g></g><g fill="#004aad" fill-opacity="1"><g transform="translate(225.808523, 228.526024)"><g><path d="M 15.953125 -19.203125 C 16.472656 -19.203125 16.882812 -19.046875 17.1875 -18.734375 C 17.5 -18.421875 17.65625 -18.015625 17.65625 -17.515625 L 17.65625 -1.671875 C 17.65625 -1.191406 17.488281 -0.789062 17.15625 -0.46875 C 16.832031 -0.15625 16.414062 0 15.90625 0 C 15.445312 0 15.050781 -0.15625 14.71875 -0.46875 C 14.394531 -0.789062 14.234375 -1.191406 14.234375 -1.671875 L 14.234375 -8.0625 L 5.484375 -8.0625 L 5.484375 -1.671875 C 5.484375 -1.191406 5.304688 -0.789062 4.953125 -0.46875 C 4.609375 -0.15625 4.207031 0 3.75 0 C 3.257812 0 2.851562 -0.15625 2.53125 -0.46875 C 2.21875 -0.789062 2.0625 -1.191406 2.0625 -1.671875 L 2.0625 -17.515625 C 2.0625 -17.992188 2.222656 -18.394531 2.546875 -18.71875 C 2.878906 -19.039062 3.300781 -19.203125 3.8125 -19.203125 C 4.269531 -19.203125 4.660156 -19.039062 4.984375 -18.71875 C 5.316406 -18.394531 5.484375 -17.992188 5.484375 -17.515625 L 5.484375 -11.21875 L 14.234375 -11.21875 L 14.234375 -17.515625 C 14.234375 -17.992188 14.40625 -18.394531 14.75 -18.71875 C 15.101562 -19.039062 15.503906 -19.203125 15.953125 -19.203125 Z M 15.953125 -19.203125 "/></g></g></g><g fill="#004aad" fill-opacity="1"><g transform="translate(246.457577, 228.526024)"><g><path d="M 19.71875 -9.59375 C 19.71875 -7.789062 19.3125 -6.132812 18.5 -4.625 C 17.695312 -3.113281 16.585938 -1.914062 15.171875 -1.03125 C 13.753906 -0.15625 12.160156 0.28125 10.390625 0.28125 C 8.617188 0.28125 7.023438 -0.15625 5.609375 -1.03125 C 4.191406 -1.914062 3.082031 -3.113281 2.28125 -4.625 C 1.488281 -6.132812 1.09375 -7.789062 1.09375 -9.59375 C 1.09375 -11.40625 1.488281 -13.066406 2.28125 -14.578125 C 3.082031 -16.085938 4.191406 -17.28125 5.609375 -18.15625 C 7.023438 -19.03125 8.617188 -19.46875 10.390625 -19.46875 C 12.160156 -19.46875 13.753906 -19.03125 15.171875 -18.15625 C 16.585938 -17.28125 17.695312 -16.085938 18.5 -14.578125 C 19.3125 -13.066406 19.71875 -11.40625 19.71875 -9.59375 Z M 16.15625 -9.59375 C 16.15625 -10.820312 15.90625 -11.929688 15.40625 -12.921875 C 14.914062 -13.921875 14.226562 -14.710938 13.34375 -15.296875 C 12.46875 -15.878906 11.484375 -16.171875 10.390625 -16.171875 C 9.273438 -16.171875 8.28125 -15.882812 7.40625 -15.3125 C 6.539062 -14.738281 5.863281 -13.945312 5.375 -12.9375 C 4.894531 -11.9375 4.65625 -10.820312 4.65625 -9.59375 C 4.65625 -8.375 4.894531 -7.257812 5.375 -6.25 C 5.863281 -5.25 6.539062 -4.457031 7.40625 -3.875 C 8.28125 -3.300781 9.273438 -3.015625 10.390625 -3.015625 C 11.484375 -3.015625 12.46875 -3.304688 13.34375 -3.890625 C 14.226562 -4.472656 14.914062 -5.265625 15.40625 -6.265625 C 15.90625 -7.265625 16.15625 -8.375 16.15625 -9.59375 Z M 16.15625 -9.59375 "/></g></g></g><g fill="#004aad" fill-opacity="1"><g transform="translate(268.203513, 228.526024)"><g><path d="M 9.984375 -19.203125 C 10.910156 -19.203125 11.796875 -18.921875 12.640625 -18.359375 C 13.484375 -17.796875 14.160156 -17.046875 14.671875 -16.109375 C 15.179688 -15.171875 15.4375 -14.144531 15.4375 -13.03125 C 15.4375 -11.925781 15.179688 -10.898438 14.671875 -9.953125 C 14.160156 -9.003906 13.484375 -8.25 12.640625 -7.6875 C 11.796875 -7.132812 10.910156 -6.859375 9.984375 -6.859375 L 5.203125 -6.859375 L 5.203125 -1.671875 C 5.203125 -1.179688 5.054688 -0.78125 4.765625 -0.46875 C 4.472656 -0.15625 4.09375 0 3.625 0 C 3.164062 0 2.789062 -0.15625 2.5 -0.46875 C 2.207031 -0.789062 2.0625 -1.191406 2.0625 -1.671875 L 2.0625 -17.515625 C 2.0625 -17.992188 2.21875 -18.394531 2.53125 -18.71875 C 2.851562 -19.039062 3.253906 -19.203125 3.734375 -19.203125 Z M 9.984375 -9.984375 C 10.328125 -9.984375 10.664062 -10.128906 11 -10.421875 C 11.34375 -10.710938 11.617188 -11.085938 11.828125 -11.546875 C 12.035156 -12.015625 12.140625 -12.507812 12.140625 -13.03125 C 12.140625 -13.539062 12.035156 -14.023438 11.828125 -14.484375 C 11.617188 -14.953125 11.34375 -15.328125 11 -15.609375 C 10.664062 -15.898438 10.328125 -16.046875 9.984375 -16.046875 L 5.203125 -16.046875 L 5.203125 -9.984375 Z M 9.984375 -9.984375 "/></g></g></g></svg>