<svg xmlns="http://www.w3.org/2000/svg" xmlns:xlink="http://www.w3.org/1999/xlink" width="500" zoomAndPan="magnify" viewBox="0 0 375 374.999991" height="500" preserveAspectRatio="xMidYMid meet" version="1.0"><defs><clipPath id="id1"><path d="M 6.039062 37.589844 L 369.039062 37.589844 L 369.039062 337.402344 L 6.039062 337.402344 Z M 6.039062 37.589844 " clip-rule="nonzero"/></clipPath></defs><path fill="#004aad" d="M 237.429688 289.875 C 236.089844 287.621094 233.28125 286.726562 230.878906 287.773438 C 223.15625 291.128906 215.625 290.90625 208.882812 287.070312 C 200.609375 282.359375 194.664062 272.574219 193.132812 261.707031 L 198.503906 256.335938 C 200.066406 254.777344 200.527344 252.453125 199.683594 250.414062 C 198.839844 248.375 196.867188 247.058594 194.660156 247.058594 L 180.078125 247.058594 C 177.871094 247.058594 175.898438 248.375 175.054688 250.414062 C 174.210938 252.453125 174.675781 254.777344 176.234375 256.335938 L 181.910156 262.011719 C 180.308594 272.753906 174.398438 282.402344 166.203125 287.070312 C 159.460938 290.90625 151.929688 291.128906 144.207031 287.773438 C 141.800781 286.726562 138.996094 287.621094 137.65625 289.875 C 136.050781 292.582031 137.210938 296.0625 140.101562 297.3125 C 145.035156 299.449219 150.007812 300.519531 154.878906 300.519531 C 160.589844 300.519531 166.160156 299.050781 171.34375 296.09375 C 178.21875 292.183594 183.804688 285.957031 187.542969 278.464844 C 191.28125 285.957031 196.867188 292.183594 203.742188 296.09375 C 208.929688 299.050781 214.496094 300.519531 220.207031 300.519531 C 225.078125 300.519531 230.050781 299.449219 234.984375 297.3125 C 237.871094 296.0625 239.035156 292.582031 237.429688 289.875 " fill-opacity="1" fill-rule="nonzero"/><path fill="#004aad" d="M 255.535156 204.480469 C 248.835938 204.480469 243.40625 209.910156 243.40625 216.605469 C 243.40625 223.300781 248.835938 228.726562 255.535156 228.726562 C 262.230469 228.726562 267.660156 223.300781 267.660156 216.605469 C 267.660156 209.910156 262.230469 204.480469 255.535156 204.480469 " fill-opacity="1" fill-rule="nonzero"/><path fill="#004aad" d="M 119.550781 204.480469 C 112.855469 204.480469 107.425781 209.910156 107.425781 216.605469 C 107.425781 223.300781 112.855469 228.726562 119.550781 228.726562 C 126.246094 228.726562 131.675781 223.300781 131.675781 216.605469 C 131.675781 209.910156 126.246094 204.480469 119.550781 204.480469 " fill-opacity="1" fill-rule="nonzero"/><g clip-path="url(#id1)"><path fill="#004aad" d="M 312.738281 53.929688 L 312.738281 176.738281 C 309.90625 169.9375 306.511719 163.351562 302.570312 157.050781 C 300.15625 153.199219 297.554688 149.488281 294.785156 145.917969 L 294.785156 108.101562 C 294.785156 105.445312 291.574219 104.113281 289.695312 105.992188 L 272.492188 123.191406 C 267.074219 118.835938 261.316406 114.886719 255.265625 111.390625 Z M 62.347656 53.929688 L 119.820312 111.390625 C 113.664062 114.949219 107.8125 118.976562 102.3125 123.425781 L 84.875 105.992188 C 82.996094 104.113281 79.785156 105.445312 79.785156 108.101562 L 79.785156 146.574219 C 77.207031 149.945312 74.777344 153.4375 72.519531 157.050781 C 68.578125 163.351562 65.179688 169.9375 62.347656 176.738281 Z M 366.152344 303.234375 L 323.128906 281.980469 L 323.128906 273.042969 L 353.871094 273.042969 C 356.738281 273.042969 359.066406 270.714844 359.066406 267.847656 C 359.066406 264.980469 356.738281 262.652344 353.871094 262.652344 L 323.128906 262.652344 L 323.128906 253.714844 L 366.152344 232.464844 C 368.722656 231.191406 369.777344 228.078125 368.503906 225.503906 C 367.234375 222.933594 364.121094 221.878906 361.546875 223.148438 L 323.128906 242.128906 L 323.128906 43.773438 C 323.128906 41.265625 321.632812 39.023438 319.3125 38.0625 C 316.996094 37.101562 314.351562 37.628906 312.574219 39.402344 L 245.597656 106.367188 C 227.988281 97.992188 208.304688 93.296875 187.542969 93.296875 C 166.78125 93.296875 147.097656 97.992188 129.488281 106.367188 L 62.507812 39.402344 C 60.734375 37.628906 58.089844 37.101562 55.773438 38.0625 C 53.453125 39.023438 51.957031 41.265625 51.957031 43.773438 L 51.957031 242.128906 L 13.539062 223.148438 C 10.964844 221.878906 7.851562 222.933594 6.578125 225.503906 C 5.308594 228.078125 6.363281 231.191406 8.933594 232.464844 L 51.957031 253.714844 L 51.957031 262.652344 L 21.214844 262.652344 C 18.34375 262.652344 16.019531 264.980469 16.019531 267.847656 C 16.019531 270.714844 18.34375 273.042969 21.214844 273.042969 L 51.957031 273.042969 L 51.957031 281.980469 L 8.933594 303.234375 C 6.363281 304.503906 5.308594 307.617188 6.578125 310.191406 C 7.851562 312.761719 10.964844 313.816406 13.539062 312.546875 L 51.957031 293.570312 L 51.957031 337.402344 L 62.347656 337.402344 L 62.347656 228.851562 C 62.347656 227.535156 62.371094 226.222656 62.414062 224.914062 C 62.425781 224.507812 62.445312 224.101562 62.460938 223.695312 C 62.5 222.761719 62.546875 221.832031 62.605469 220.902344 C 62.632812 220.46875 62.65625 220.035156 62.6875 219.601562 C 62.777344 218.410156 62.878906 217.222656 62.996094 216.035156 C 63.058594 215.433594 63.132812 214.832031 63.203125 214.234375 C 63.273438 213.636719 63.34375 213.039062 63.421875 212.445312 C 63.523438 211.667969 63.632812 210.890625 63.75 210.117188 C 63.789062 209.835938 63.835938 209.558594 63.878906 209.277344 C 73.308594 149.523438 125.167969 103.683594 187.542969 103.683594 C 249.917969 103.683594 301.777344 149.523438 311.203125 209.277344 C 311.25 209.558594 311.292969 209.835938 311.335938 210.117188 C 311.453125 210.890625 311.5625 211.667969 311.664062 212.445312 C 311.742188 213.039062 311.8125 213.636719 311.882812 214.234375 C 311.953125 214.832031 312.027344 215.433594 312.085938 216.035156 C 312.207031 217.222656 312.3125 218.410156 312.398438 219.601562 C 312.429688 220.035156 312.453125 220.46875 312.480469 220.902344 C 312.539062 221.832031 312.589844 222.761719 312.625 223.695312 C 312.640625 224.101562 312.660156 224.507812 312.671875 224.914062 C 312.710938 226.222656 312.738281 227.535156 312.738281 228.851562 L 312.738281 337.402344 L 323.128906 337.402344 L 323.128906 293.570312 L 361.546875 312.546875 C 364.121094 313.816406 367.234375 312.761719 368.503906 310.191406 C 369.777344 307.617188 368.722656 304.503906 366.152344 303.234375 " fill-opacity="1" fill-rule="nonzero"/></g></svg>